<svg width="1718" height="1033" xmlns="http://www.w3.org/2000/svg" xmlns:xlink="http://www.w3.org/1999/xlink" overflow="hidden"><defs><clipPath id="clip0"><rect x="81" y="38" width="1718" height="1033"/></clipPath><linearGradient x1="14.1679" y1="0" x2="14.1679" y2="82.103" gradientUnits="userSpaceOnUse" spreadMethod="reflect" id="fill1"><stop offset="0" stop-color="#D2DDED"/><stop offset="0.55" stop-color="#D2DDED"/><stop offset="1" stop-color="#FFFFFF" stop-opacity="0"/></linearGradient><linearGradient x1="983.889" y1="131.735" x2="957.313" y2="250.874" gradientUnits="userSpaceOnUse" spreadMethod="reflect" id="fill2"><stop offset="0" stop-color="#D6F0B2"/><stop offset="0.21" stop-color="#D6F0B2"/><stop offset="1" stop-color="#FFFFFF" stop-opacity="0"/></linearGradient><linearGradient x1="1100.89" y1="145.568" x2="1040.42" y2="251.607" gradientUnits="userSpaceOnUse" spreadMethod="reflect" id="fill3"><stop offset="0" stop-color="#D6F0B2"/><stop offset="0.21" stop-color="#D6F0B2"/><stop offset="1" stop-color="#FFFFFF" stop-opacity="0"/></linearGradient><linearGradient x1="565.327" y1="728.352" x2="729.254" y2="651.117" gradientUnits="userSpaceOnUse" spreadMethod="reflect" id="fill4"><stop offset="0" stop-color="#F7D5FF"/><stop offset="0.55" stop-color="#F7D5FF"/><stop offset="1" stop-color="#FFFFFF" stop-opacity="0"/></linearGradient><linearGradient x1="621.977" y1="838.187" x2="750.112" y2="710.052" gradientUnits="userSpaceOnUse" spreadMethod="reflect" id="fill5"><stop offset="0" stop-color="#F7D5FF"/><stop offset="0.55" stop-color="#F7D5FF"/><stop offset="1" stop-color="#FFFFFF" stop-opacity="0"/></linearGradient><linearGradient x1="572.219" y1="797.945" x2="722.027" y2="695.99" gradientUnits="userSpaceOnUse" spreadMethod="reflect" id="fill6"><stop offset="0" stop-color="#F7D5FF"/><stop offset="0.55" stop-color="#F7D5FF"/><stop offset="1" stop-color="#FFFFFF" stop-opacity="0"/></linearGradient><linearGradient x1="1138.39" y1="682.285" x2="1132.48" y2="764.174" gradientUnits="userSpaceOnUse" spreadMethod="reflect" id="fill7"><stop offset="0" stop-color="#D2DDED"/><stop offset="0.55" stop-color="#D2DDED"/><stop offset="1" stop-color="#FFFFFF" stop-opacity="0"/></linearGradient><linearGradient x1="14.1679" y1="-6.11104e-15" x2="14.1679" y2="81.2826" gradientUnits="userSpaceOnUse" spreadMethod="reflect" id="fill8"><stop offset="0" stop-color="#D2DDED"/><stop offset="0.55" stop-color="#D2DDED"/><stop offset="1" stop-color="#FFFFFF" stop-opacity="0"/></linearGradient><linearGradient x1="14.1679" y1="-6.11104e-15" x2="14.1679" y2="64.4817" gradientUnits="userSpaceOnUse" spreadMethod="reflect" id="fill9"><stop offset="0" stop-color="#D2DDED"/><stop offset="0.55" stop-color="#D2DDED"/><stop offset="1" stop-color="#FFFFFF" stop-opacity="0"/></linearGradient><linearGradient x1="1260.84" y1="322.164" x2="1161.74" y2="365.155" gradientUnits="userSpaceOnUse" spreadMethod="reflect" id="fill10"><stop offset="0" stop-color="#FFE497"/><stop offset="0.21" stop-color="#FFE497"/><stop offset="1" stop-color="#FFFFFF" stop-opacity="0"/></linearGradient><linearGradient x1="1288.12" y1="432.887" x2="1180.21" y2="437.735" gradientUnits="userSpaceOnUse" spreadMethod="reflect" id="fill11"><stop offset="0" stop-color="#FFE497"/><stop offset="0.21" stop-color="#FFE497"/><stop offset="1" stop-color="#FFFFFF" stop-opacity="0"/></linearGradient></defs><g clip-path="url(#clip0)" transform="translate(-81 -38)"><path d="M0 14.1679C-2.6132e-15 6.34317 6.34317 0 14.1679 0L14.1679 0C21.9926-2.6132e-15 28.3357 6.34317 28.3357 14.1679L28.3356 67.9351C28.3356 75.7598 21.9925 82.103 14.1678 82.103L14.1679 82.1029C6.34317 82.1029 0 75.7597 0 67.935Z" fill="url(#fill1)" fill-rule="evenodd" transform="matrix(0.313231 0.949677 0.949677 -0.313231 1155.84 635.187)"/><path d="M954.353 125.147 1013.42 138.324 986.849 257.462 927.777 244.285Z" fill="url(#fill2)" fill-rule="evenodd"/><path d="M1074.6 130.578 1127.18 160.558 1066.71 266.597 1014.14 236.617Z" fill="url(#fill3)" fill-rule="evenodd"/><path d="M1066.9 145.09C1062.96 137.11 1066.24 127.449 1074.22 123.511 1082.2 119.573 1091.86 122.85 1095.8 130.83 1099.74 138.809 1096.46 148.471 1088.48 152.409 1080.5 156.346 1070.84 153.07 1066.9 145.09Z" stroke="#000000" stroke-width="4" stroke-miterlimit="8" fill="#F7B801" fill-rule="evenodd"/><path d="M1099.93 153.013C1094.9 142.818 1099.08 130.474 1109.28 125.443 1119.47 120.412 1131.82 124.598 1136.85 134.793 1141.88 144.989 1137.69 157.332 1127.5 162.363 1117.3 167.394 1104.96 163.208 1099.93 153.013Z" stroke="#000000" stroke-width="4" stroke-miterlimit="8" fill="#98D93E" fill-rule="evenodd"/><path d="M952.025 119.255C953.25 110.441 961.388 104.289 970.202 105.514 979.016 106.739 985.168 114.877 983.943 123.691 982.718 132.505 974.58 138.657 965.766 137.432 956.952 136.207 950.8 128.069 952.025 119.255Z" stroke="#000000" stroke-width="4" stroke-miterlimit="8" fill="#F7B801" fill-rule="evenodd"/><path d="M974.897 144.363C976.462 133.102 986.86 125.242 998.12 126.806 1009.38 128.371 1017.24 138.769 1015.68 150.03 1014.11 161.29 1003.71 169.151 992.453 167.586 981.193 166.021 973.332 155.623 974.897 144.363Z" stroke="#000000" stroke-width="4" stroke-miterlimit="8" fill="#98D93E" fill-rule="evenodd"/><text font-family="Segoe UI,Segoe UI_MSFontService,sans-serif" font-weight="700" font-size="37" transform="translate(1154.21 86)">Oxidation<tspan font-weight="300" font-size="32" x="0" y="40">Energy involved in oxidation of </tspan><tspan font-weight="300" font-size="32" x="0" y="78">the nanoparticle material</tspan></text><path d="M569.072 736.301 561.582 720.403 725.509 643.169 732.999 659.066Z" fill="url(#fill4)" fill-rule="evenodd"/><path d="M557.836 723.428C560.502 719.079 566.189 717.716 570.537 720.383 574.886 723.049 576.249 728.736 573.583 733.084 570.916 737.433 565.229 738.796 560.881 736.13 556.532 733.463 555.169 727.776 557.836 723.428Z" stroke="#000000" stroke-width="4.66667" stroke-miterlimit="8" fill="#F7D5FF" fill-rule="evenodd"/><path d="M628.19 844.4 615.763 831.973 743.898 703.838 756.325 716.265Z" fill="url(#fill5)" fill-rule="evenodd"/><path d="M613.261 836.087C614.299 831.093 619.19 827.886 624.184 828.925 629.178 829.963 632.385 834.854 631.346 839.848 630.308 844.842 625.417 848.049 620.423 847.01 615.429 845.972 612.222 841.081 613.261 836.087Z" stroke="#000000" stroke-width="4.66667" stroke-miterlimit="8" fill="#F7D5FF" fill-rule="evenodd"/><path d="M577.163 805.209 567.275 790.68 717.083 688.726 726.971 703.254Z" fill="url(#fill6)" fill-rule="evenodd"/><path d="M564.049 794.255C566.001 789.542 571.405 787.305 576.117 789.258 580.829 791.211 583.067 796.614 581.114 801.326 579.161 806.039 573.758 808.276 569.046 806.323 564.333 804.37 562.096 798.967 564.049 794.255Z" stroke="#000000" stroke-width="4.66667" stroke-miterlimit="8" fill="#F7D5FF" fill-rule="evenodd"/><text font-family="Segoe UI,Segoe UI_MSFontService,sans-serif" font-weight="700" font-size="37" transform="translate(327.932 795)">Thermionic <tspan x="44.2733" y="45">emission</tspan><tspan font-weight="300" font-size="32" x="4.69333" y="85">Energy lost by </tspan><tspan font-weight="300" font-size="32" x="-48.8067" y="123">emitting electrons</tspan></text><path d="M1123.24 695.394C1123.81 687.59 1130.59 681.721 1138.39 682.285L1138.39 682.285C1146.2 682.849 1152.07 689.633 1151.5 697.437L1147.63 751.064C1147.06 758.869 1140.28 764.738 1132.48 764.174L1132.48 764.174C1124.67 763.61 1118.8 756.826 1119.37 749.022Z" fill="url(#fill7)" fill-rule="evenodd"/><text font-family="Segoe UI,Segoe UI_MSFontService,sans-serif" font-weight="700" font-size="37" transform="translate(603.933 112)">Annealing<tspan font-weight="300" font-size="32" x="-71.8734" y="40">Energy involved in </tspan><tspan font-weight="300" font-size="32" x="-185.207" y="78">transformations internal to </tspan><tspan font-weight="300" font-size="32" x="-44.8334" y="117">the nanoparticle</tspan></text><path d="M971.5 882.243 952.5 907.5 933.5 882.243 943.804 882.243 944.311 881.156C946.586 876.584 948.86 872.012 944.311 867.44 935.212 858.297 953.41 849.153 944.311 840.009 935.212 830.866 953.41 821.722 944.311 812.578 937.487 805.72 946.017 798.863 946.87 792.005L946.636 789.491 947.857 788.31C949.573 787.192 951.943 786.5 954.561 786.5 957.18 786.5 959.55 787.192 961.266 788.31L963.279 790.256 963.288 790.29C963.924 797.72 953.296 805.149 960.689 812.578 969.788 821.722 951.59 830.866 960.689 840.009 969.788 849.153 951.59 858.297 960.689 867.44 965.239 872.012 962.964 876.584 960.689 881.156L960.182 882.243Z" stroke="#000000" stroke-width="1.33333" stroke-linejoin="round" stroke-miterlimit="10" fill="#F7CECD" fill-rule="evenodd"/><path d="M927.5 882.243 908.5 907.5 889.5 882.243 899.804 882.243 900.311 881.156C902.586 876.584 904.86 872.012 900.311 867.44 891.212 858.297 909.41 849.153 900.311 840.009 891.212 830.866 909.41 821.722 900.311 812.578 893.487 805.72 902.017 798.863 902.87 792.005L902.636 789.491 903.857 788.31C905.573 787.192 907.943 786.5 910.561 786.5 913.18 786.5 915.55 787.192 917.266 788.31L919.279 790.256 919.288 790.29C919.924 797.72 909.296 805.149 916.689 812.578 925.788 821.722 907.59 830.866 916.689 840.009 925.788 849.153 907.59 858.297 916.689 867.44 921.239 872.012 918.964 876.584 916.689 881.156L916.182 882.243Z" stroke="#000000" stroke-width="1.33333" stroke-linejoin="round" stroke-miterlimit="10" fill="#F7CECD" fill-rule="evenodd"/><path d="M883.5 882.243 864.5 907.5 845.5 882.243 855.804 882.243 856.311 881.156C858.586 876.584 860.86 872.012 856.311 867.44 847.212 858.297 865.41 849.153 856.311 840.009 847.212 830.866 865.41 821.722 856.311 812.578 849.487 805.72 858.017 798.863 858.87 792.005L858.636 789.491 859.857 788.31C861.573 787.192 863.943 786.5 866.561 786.5 869.18 786.5 871.55 787.192 873.266 788.31L875.279 790.256 875.288 790.29C875.924 797.72 865.296 805.149 872.689 812.578 881.788 821.722 863.59 830.866 872.689 840.009 881.788 849.153 863.59 858.297 872.689 867.44 877.239 872.012 874.964 876.584 872.689 881.156L872.182 882.243Z" stroke="#000000" stroke-width="1.33333" stroke-linejoin="round" stroke-miterlimit="10" fill="#F7CECD" fill-rule="evenodd"/><text font-family="Segoe UI,Segoe UI_MSFontService,sans-serif" font-weight="700" font-size="37" transform="translate(826.246 966)">Radiation<tspan font-weight="300" font-size="32" x="-60.2866" y="40">Energy transferred to </tspan><tspan font-weight="300" font-size="32" x="-85.2867" y="78">surrounding by radiation</tspan></text><path d="M1224.26 670.695 1205.39 691.836 1164.64 655.473C1158.8 650.263 1158.3 641.307 1163.51 635.469L1163.51 635.469C1168.72 629.631 1177.67 629.122 1183.51 634.331L1224.26 670.695Z" fill="#D2DDED" fill-rule="evenodd"/><path d="M0 0 28.3355 0 28.3355 54.6134C28.3355 62.438 21.9924 68.7811 14.1678 68.7811L14.1678 68.7811C6.34313 68.7811 0 62.438 0 54.6134L0 0Z" fill="#D2DDED" fill-rule="evenodd" transform="matrix(0.561126 -0.82773 -0.82773 -0.561126 1175.39 738.951)"/><path d="M0 14.1679C-2.58709e-15 6.34319 6.34319-5.17417e-15 14.1679-5.17417e-15L14.1679 0C21.9926-2.58709e-15 28.3358 6.34319 28.3358 14.1679L28.3357 67.1147C28.3357 74.9394 21.9926 81.2826 14.1678 81.2826L14.1679 81.2825C6.34319 81.2825-2.58709e-15 74.9393 0 67.1146Z" fill="url(#fill8)" fill-rule="evenodd" transform="matrix(-0.866025 0.5 0.5 0.866025 1291.84 626.833)"/><path d="M0 14.1678C0 6.34316 6.34317-2.05234e-15 14.1679-4.10469e-15L14.1679 0C21.9926-4.10469e-15 28.3357 6.34316 28.3357 14.1678L28.3357 50.3138C28.3357 58.1385 21.9926 64.4817 14.1679 64.4817L14.1679 64.4817C6.34317 64.4817 0 58.1385-2.05235e-15 50.3138Z" fill="url(#fill9)" fill-rule="evenodd" transform="matrix(-0.707107 -0.707107 -0.707107 0.707107 1277.68 766.719)"/><path d="M1255.37 309.55 1266.31 334.777 1167.21 377.768 1156.27 352.542Z" fill="url(#fill10)" fill-rule="evenodd"/><path d="M1286.74 402.11 1289.51 463.664 1181.59 468.511 1178.83 406.958Z" fill="url(#fill11)" fill-rule="evenodd"/><path d="M1237.82 434.616C1237.42 425.727 1244.3 418.197 1253.19 417.797 1262.08 417.398 1269.61 424.281 1270.01 433.17 1270.41 442.06 1263.53 449.59 1254.64 449.989 1245.75 450.389 1238.22 443.506 1237.82 434.616Z" stroke="#000000" stroke-width="4" stroke-miterlimit="8" fill="#F7B801" fill-rule="evenodd"/><path d="M1265.01 417.79C1264.61 408.9 1271.5 401.37 1280.39 400.97 1289.28 400.571 1296.81 407.454 1297.2 416.344 1297.6 425.233 1290.72 432.763 1281.83 433.163 1272.94 433.562 1265.41 426.679 1265.01 417.79Z" stroke="#000000" stroke-width="4" stroke-miterlimit="8" fill="#F7B801" fill-rule="evenodd"/><path d="M1266.86 449.372C1266.46 440.482 1273.34 432.952 1282.23 432.553 1291.12 432.153 1298.65 439.036 1299.05 447.926 1299.45 456.816 1292.57 464.346 1283.68 464.745 1274.79 465.144 1267.26 458.262 1266.86 449.372Z" stroke="#000000" stroke-width="4" stroke-miterlimit="8" fill="#F7B801" fill-rule="evenodd"/><path d="M1243.83 329.542C1240.29 321.379 1244.04 311.89 1252.2 308.348 1260.36 304.807 1269.85 308.553 1273.39 316.717 1276.93 324.881 1273.19 334.369 1265.02 337.911 1256.86 341.452 1247.37 337.706 1243.83 329.542Z" stroke="#000000" stroke-width="4" stroke-miterlimit="8" fill="#F7B801" fill-rule="evenodd"/><text font-family="Segoe UI,Segoe UI_MSFontService,sans-serif" font-weight="700" font-size="37" transform="translate(1336.1 347)">Vaporization<tspan font-weight="300" font-size="32" x="0" y="40">Energy removed by </tspan><tspan font-weight="300" font-size="32" x="0" y="78">evaporating/sublimating species</tspan><tspan x="-13.6549" y="403">Conduction</tspan><tspan font-weight="300" font-size="32" x="-13.6549" y="443">Energy transferred to </tspan><tspan font-weight="300" font-size="32" x="-13.6549" y="481">surrounding gas</tspan></text><path d="M581.702 378.905 626.843 407.36 576.704 425.623 578.059 412.955 576.076 412.113C567.751 408.393 559.427 404.674 550.205 409.345 531.761 418.686 516.908 394.468 498.464 403.81 480.02 413.151 465.167 388.933 446.723 398.275 432.89 405.281 421.077 393.41 408.254 390.977L403.481 390.758 401.414 389.018C399.531 386.683 398.538 383.629 398.882 380.41 399.226 377.192 400.843 374.417 403.178 372.533L407.113 370.451 407.179 370.446C421.276 371.164 433.891 385.729 448.877 378.139 467.321 368.798 482.174 393.016 500.618 383.674 519.062 374.333 533.915 398.551 552.359 389.209 561.581 384.539 569.905 388.258 578.23 391.977L580.213 392.82Z" stroke="#000000" stroke-width="1.33333" stroke-linejoin="round" stroke-miterlimit="10" fill="#BF211E" fill-rule="evenodd"/><path d="M576.13 430.987 621.271 459.443 571.133 477.705 572.488 465.038 570.504 464.195C562.179 460.476 553.855 456.757 544.633 461.427 526.19 470.769 511.336 446.551 492.892 455.892 474.449 465.234 459.595 441.016 441.151 450.357 427.318 457.363 415.505 445.492 402.682 443.059L397.91 442.841 395.843 441.1C393.959 438.765 392.966 435.712 393.31 432.493 393.655 429.274 395.271 426.499 397.606 424.616L401.542 422.533 401.608 422.529C415.704 423.247 428.32 437.811 443.305 430.221 461.749 420.88 476.603 445.098 495.046 435.757 513.49 426.415 528.344 450.633 546.787 441.292 556.009 436.621 564.333 440.34 572.658 444.059L574.642 444.902Z" stroke="#000000" stroke-width="1.33333" stroke-linejoin="round" stroke-miterlimit="10" fill="#BF211E" fill-rule="evenodd"/><path d="M570.72 483.136 615.861 511.591 565.722 529.854 567.077 517.186 565.093 516.343C556.769 512.624 548.444 508.905 539.223 513.576 520.779 522.917 505.925 498.699 487.482 508.041 469.038 517.382 454.184 493.164 435.741 502.506 421.908 509.512 410.094 497.641 397.271 495.208L392.499 494.989 390.432 493.249C388.548 490.914 387.555 487.86 387.9 484.641 388.244 481.422 389.861 478.648 392.196 476.764L396.131 474.682 396.197 474.677C410.294 475.395 422.909 489.96 437.895 482.37 456.338 473.028 471.192 497.246 489.636 487.905 508.079 478.564 522.933 502.782 541.377 493.44 550.599 488.769 558.923 492.489 567.247 496.208L569.231 497.051Z" stroke="#000000" stroke-width="1.33333" stroke-linejoin="round" stroke-miterlimit="10" fill="#BF211E" fill-rule="evenodd"/><text font-family="Segoe UI,Segoe UI_MSFontService,sans-serif" font-weight="700" font-size="37" transform="translate(257.9 379)">Laser <tspan x="-100.5" y="45">absorption</tspan><tspan font-weight="300" font-size="32" x="-157.16" y="85">Energy input from </tspan><tspan font-weight="300" font-size="32" x="-25.8333" y="123">the laser</tspan></text><path d="M847.97 249.936 847.819 326.076 833.083 331.469C827.686 333.752 822.424 336.289 817.311 339.067L803.013 347.753 734.514 308.387 741.9 301.674C766.995 280.964 796.133 264.98 827.954 255.083Z" stroke="#000000" stroke-width="2.66667" stroke-miterlimit="8" fill="#FFFFFF" fill-rule="evenodd"/><path d="M831.318 295.837 842.828 291.834 845.934 293.052 845.963 293.201 845.949 296.502 845.012 298.112 833.502 302.115 828.748 300.25Z" stroke="#000000" stroke-width="2.66667" stroke-miterlimit="8" fill="#F7B801" fill-rule="evenodd"/><path d="M814.97 309.244 817.337 304.719 828.652 300.196 833.486 301.843 831.12 306.368 819.804 310.891Z" stroke="#000000" stroke-width="2.66667" stroke-miterlimit="8" fill="#F7B801" fill-rule="evenodd"/><path d="M812.521 303.071 814.887 298.546 826.203 294.023 831.037 295.669 828.67 300.195 817.355 304.718Z" stroke="#000000" stroke-width="2.66667" stroke-miterlimit="8" fill="#F7B801" fill-rule="evenodd"/><path d="M799.212 313.276 801.299 308.615 812.318 303.411 817.243 304.76 815.157 309.421 804.138 314.625Z" stroke="#000000" stroke-width="2.66667" stroke-miterlimit="8" fill="#F7B801" fill-rule="evenodd"/><path d="M786.775 324.935 788.336 320.072 798.716 313.688 803.76 314.487 802.199 319.35 791.819 325.734Z" stroke="#000000" stroke-width="2.66667" stroke-miterlimit="8" fill="#F7B801" fill-rule="evenodd"/><path d="M783.31 319.269 784.871 314.406 795.251 308.022 800.295 308.821 798.734 313.684 788.354 320.068Z" stroke="#000000" stroke-width="2.66667" stroke-miterlimit="8" fill="#F7B801" fill-rule="evenodd"/><path d="M782.777 319.695 787.875 319.982 786.812 324.977 777.128 332.375 776.754 332.353 775.113 331.277 772.705 328.911 773.093 327.092Z" stroke="#000000" stroke-width="2.66667" stroke-miterlimit="8" fill="#F7B801" fill-rule="evenodd"/><path d="M803.125 286.357 805.458 281.814 816.739 277.206 821.585 278.816 819.252 283.359 807.971 287.968Z" stroke="#000000" stroke-width="2.66667" stroke-miterlimit="8" fill="#F7B801" fill-rule="evenodd"/><path d="M789.843 296.07 791.967 291.425 803.026 286.308 807.941 287.696 805.818 292.341 794.758 297.458Z" stroke="#000000" stroke-width="2.66667" stroke-miterlimit="8" fill="#F7B801" fill-rule="evenodd"/><path d="M787.07 290.035 789.193 285.391 800.253 280.274 805.168 281.662 803.044 286.306 791.985 291.423Z" stroke="#000000" stroke-width="2.66667" stroke-miterlimit="8" fill="#F7B801" fill-rule="evenodd"/><path d="M774.321 300.931 776.158 296.166 786.886 290.385 791.876 291.471 790.039 296.236 779.311 302.017Z" stroke="#000000" stroke-width="2.66667" stroke-miterlimit="8" fill="#F7B801" fill-rule="evenodd"/><path d="M762.52 313.233 763.822 308.295 773.848 301.369 778.927 301.9 777.626 306.838 767.599 313.764Z" stroke="#000000" stroke-width="2.66667" stroke-miterlimit="8" fill="#F7B801" fill-rule="evenodd"/><path d="M818.86 282.968 821.725 278.741 833.48 275.531 838.096 277.716 835.231 281.943 823.476 285.153Z" stroke="#000000" stroke-width="2.66667" stroke-miterlimit="8" fill="#F7B801" fill-rule="evenodd"/><path d="M817.127 276.557 819.992 272.329 831.747 269.12 836.363 271.304 833.498 275.532 821.743 278.742Z" stroke="#000000" stroke-width="2.66667" stroke-miterlimit="8" fill="#F7B801" fill-rule="evenodd"/><path d="M845.29 289.28 846.103 293.461 846.102 293.604 843.181 291.952Z" stroke="#000000" stroke-width="2.66667" stroke-miterlimit="8" fill="#F7B801" fill-rule="evenodd"/><path d="M758.12 307.833 759.421 302.895 769.448 295.969 774.527 296.5 773.226 301.438 763.199 308.364Z" stroke="#000000" stroke-width="2.66667" stroke-miterlimit="8" fill="#F7B801" fill-rule="evenodd"/><path d="M758.123 308.308 763.212 308.737 762.01 313.7 753.846 319.585 748.031 316.286 748.237 315.433Z" stroke="#000000" stroke-width="2.66667" stroke-miterlimit="8" fill="#F7B801" fill-rule="evenodd"/><path d="M848.2 269.271 848.2 275.993 837.794 277.561 833.465 274.853 836.803 270.989Z" stroke="#000000" stroke-width="2.66667" stroke-miterlimit="8" fill="#F7B801" fill-rule="evenodd"/><path d="M1203.1 670.803C1208.31 664.966 1217.27 664.456 1223.1 669.666 1228.94 674.876 1229.45 683.832 1224.24 689.67 1219.03 695.508 1210.08 696.017 1204.24 690.807 1198.4 685.598 1197.89 676.641 1203.1 670.803Z" stroke="#000000" stroke-width="4.66667" stroke-miterlimit="8" fill="#375B8D" fill-rule="evenodd"/><path d="M0 14.1678C-1.80374e-15 6.34313 6.3431-1.80375e-15 14.1677-3.60749e-15 21.9923-7.21498e-15 28.3354 6.34313 28.3354 14.1678 28.3354 21.9924 21.9923 28.3355 14.1677 28.3355 6.3431 28.3355-9.0187e-15 21.9924 0 14.1678Z" stroke="#000000" stroke-width="4.66667" stroke-miterlimit="8" fill="#375B8D" fill-rule="evenodd" transform="matrix(0.82773 0.561126 0.561126 -0.82773 1162.38 730.133)"/><path d="M1279.33 633.51C1286.11 629.597 1294.77 631.919 1298.69 638.695 1302.6 645.472 1300.28 654.136 1293.5 658.049 1286.72 661.961 1278.06 659.639 1274.15 652.863 1270.23 646.087 1272.56 637.422 1279.33 633.51Z" stroke="#000000" stroke-width="4.66667" stroke-miterlimit="8" fill="#375B8D" fill-rule="evenodd"/><path d="M1267.99 756.367C1273.53 761.9 1273.53 770.871 1267.99 776.404 1262.46 781.936 1253.49 781.936 1247.96 776.403 1242.42 770.871 1242.42 761.9 1247.96 756.367 1253.49 750.834 1262.46 750.834 1267.99 756.367Z" stroke="#000000" stroke-width="4.66667" stroke-miterlimit="8" fill="#375B8D" fill-rule="evenodd"/><text font-family="Segoe UI,Segoe UI_MSFontService,sans-serif" font-weight="300" font-size="24" transform="translate(537.074 720)">e<tspan font-size="16" x="12.3333" y="-7">-</tspan><tspan x="16.5927" y="61">e</tspan><tspan font-size="16" x="28.926" y="54">-</tspan><tspan x="96.5927" y="145">e</tspan><tspan font-size="16" x="108.926" y="138">-</tspan></text></g></svg>