<svg width="1125" height="951" xmlns="http://www.w3.org/2000/svg" xmlns:xlink="http://www.w3.org/1999/xlink" overflow="hidden"><defs><clipPath id="clip0"><rect x="407" y="62" width="1125" height="951"/></clipPath></defs><g clip-path="url(#clip0)" transform="translate(-407 -62)"><path d="M751.239 164.816 776.595 175.923 789.122 181.875 801.355 188.147 813.259 194.969 824.781 202.471 835.791 210.707 846.145 219.895 855.818 230.016 864.892 241.057 873.366 252.832 881.378 265.205 888.974 278.044 896.338 291.263 907.575 312.55 903.448 314.728 892.224 293.465 892.249 293.511 884.912 280.342 884.943 280.394 877.385 267.622 877.435 267.702 869.48 255.416 869.545 255.511 861.148 243.844 861.239 243.962 852.268 233.046 852.384 233.177 842.838 223.189 842.976 223.322 832.767 214.262 832.918 214.386 822.046 206.254 822.171 206.341 810.768 198.916 810.882 198.985 799.082 192.223 799.177 192.275 787.024 186.044 787.087 186.075 774.624 180.153 774.689 180.183 749.366 169.09ZM905.248 290.988 908.516 319.332 886.957 300.643C885.984 299.799 885.879 298.326 886.723 297.352 887.567 296.378 889.04 296.273 890.014 297.117L907.04 311.876 903.193 313.906 900.612 291.523C900.465 290.242 901.383 289.085 902.663 288.937 903.943 288.79 905.101 289.708 905.248 290.988Z"/><path d="M802.65 313.696 777.294 302.589 764.767 296.636 752.534 290.364 740.63 283.542 729.108 276.04 718.098 267.804 707.744 258.616 698.071 248.496 688.997 237.454 680.523 225.68 672.511 213.306 664.915 200.467 657.551 187.248 646.314 165.962 650.441 163.783 661.665 185.046 661.64 185 668.977 198.17 668.946 198.117 676.503 210.889 676.454 210.809 684.409 223.095 684.344 223 692.741 234.668 692.65 234.549 701.621 245.465 701.505 245.334 711.051 255.322 710.913 255.189 721.122 264.249 720.971 264.126 731.843 272.258 731.718 272.171 743.121 279.595 743.007 279.526 754.807 286.288 754.712 286.236 766.865 292.467 766.802 292.436 779.265 298.358 779.2 298.329 804.523 309.421ZM648.641 187.523 645.372 159.179 666.932 177.868C667.905 178.712 668.01 180.186 667.166 181.16 666.322 182.133 664.849 182.238 663.875 181.394L646.849 166.635 650.696 164.605 653.277 186.989C653.424 188.269 652.506 189.426 651.226 189.574 649.946 189.722 648.788 188.803 648.641 187.523Z"/><rect x="573" y="207" width="403" height="71" fill="#FFFFFF"/><text font-family="Segoe UI,Segoe UI_MSFontService,sans-serif" font-weight="300" font-size="48" transform="translate(596.004 254)">Signal processing<tspan fill="#BF211E" font-family="1,1_MSFontService,sans-serif" font-weight="700" font-size="53" x="56.8963" y="119">Incandescence</tspan><tspan fill="#8F1916" font-family="1,1_MSFontService,sans-serif" font-weight="700" font-size="53" x="293.295" y="404">Temperature</tspan><tspan fill="#33013F" font-family="1,1_MSFontService,sans-serif" font-weight="700" font-size="53" x="480.819" y="648">Quantities</tspan><tspan fill="#33013F" font-family="1,1_MSFontService,sans-serif" font-weight="700" font-size="53" x="762.486" y="648">-</tspan><tspan fill="#33013F" font-family="1,1_MSFontService,sans-serif" font-weight="700" font-size="53" x="779.652" y="648">of</tspan><tspan fill="#33013F" font-family="1,1_MSFontService,sans-serif" font-weight="700" font-size="53" x="833.319" y="648">-</tspan><tspan fill="#33013F" font-family="1,1_MSFontService,sans-serif" font-weight="700" font-size="53" x="488.352" y="712">Interest (</tspan><tspan fill="#33013F" font-family="1,1_MSFontService,sans-serif" font-weight="700" font-size="53" x="731.786" y="712">QoI</tspan><tspan fill="#33013F" font-family="1,1_MSFontService,sans-serif" font-weight="700" font-size="53" x="824.952" y="712">)</tspan></text><path d="M526.855 303.229 501.592 322.312 872.801 813.732 822.276 851.898 451.066 360.478 425.804 379.561 438.164 290.869Z" fill="#D9D9D9" fill-rule="evenodd"/><text font-family="Segoe UI,Segoe UI_MSFontService,sans-serif" font-weight="300" font-size="48" transform="matrix(0.602744 0.797934 -0.797934 0.602744 538.061 442)">Forward<tspan x="182.844" y="0.169502">p</tspan><tspan x="210.39" y="0.203766">roblem</tspan></text><path d="M1418.66 761.423 1443.93 742.34 1072.72 250.919 1123.24 212.754 1494.45 704.174 1519.71 685.091 1507.35 773.782Z" fill="#D9D9D9" fill-rule="evenodd"/><text font-family="Segoe UI,Segoe UI_MSFontService,sans-serif" font-weight="300" font-size="48" transform="matrix(0.602744 0.797934 -0.797934 0.602744 1176.74 353)">Inverse <tspan x="159.059" y="0.135117">p</tspan><tspan x="186.604" y="0.16938">roblem</tspan></text><path d="M923.021 414.873 951.818 429.426 966.015 437.057 980.004 445.095 993.614 453.635 1006.88 462.897 1019.64 472.887 1031.78 483.868 1043.29 495.824 1054.16 508.656 1064.48 522.269 1074.39 536.527 1083.93 551.3 1093.19 566.412 1108.06 591.726 1104.03 594.089 1089.18 568.795 1089.2 568.832 1079.96 553.762 1079.99 553.808 1070.49 539.092 1070.53 539.157 1060.68 524.971 1060.73 525.049 1050.48 511.526 1050.56 511.625 1039.78 498.897 1039.88 499.007 1028.47 487.163 1028.59 487.275 1016.57 476.403 1016.7 476.51 1004.06 466.61 1004.16 466.686 990.99 457.494 991.085 457.557 977.562 449.072 977.64 449.119 963.719 441.119 963.776 441.152 949.634 433.55 949.686 433.577 920.916 419.038ZM1104.75 570.292 1109.31 598.458 1086.92 580.767C1085.91 579.968 1085.74 578.501 1086.54 577.49 1087.34 576.479 1088.8 576.307 1089.81 577.106L1107.49 591.077 1103.74 593.28 1100.15 571.036C1099.94 569.764 1100.81 568.566 1102.08 568.361 1103.35 568.155 1104.55 569.02 1104.75 570.292Z"/><path d="M1003.32 592.76 974.52 578.207 960.323 570.576 946.334 562.537 932.724 553.998 919.454 544.736 906.699 534.746 894.557 523.764 883.048 511.809 872.176 498.976 861.855 485.364 851.95 471.105 842.411 456.332 833.149 441.22 818.28 415.907 822.304 413.543 837.162 438.838 837.139 438.8 846.376 453.87 846.347 453.824 855.849 468.541 855.805 468.475 865.66 482.661 865.603 482.583 875.856 496.106 875.777 496.008 886.56 508.736 886.461 508.626 897.863 520.47 897.747 520.357 909.768 531.229 909.642 531.123 922.281 541.022 922.178 540.946 935.348 550.138 935.253 550.075 948.776 558.56 948.698 558.514 962.619 566.513 962.562 566.481 976.704 574.082 976.652 574.055 1005.42 588.595ZM821.583 437.341 817.032 409.174 839.417 426.865C840.428 427.664 840.6 429.132 839.801 430.143 839.002 431.154 837.534 431.325 836.523 430.526L818.845 416.555 822.596 414.353 826.19 436.596C826.396 437.868 825.531 439.066 824.259 439.272 822.987 439.477 821.789 438.613 821.583 437.341Z"/><rect x="722" y="471" width="467" height="63" fill="#FFFFFF"/><text font-family="Segoe UI,Segoe UI_MSFontService,sans-serif" font-weight="300" font-size="48" transform="translate(740.534 518)">Spectroscopic model</text><path d="M1148.3 692.495 1172.86 702.805 1184.95 708.317 1196.83 714.237 1208.34 720.661 1219.42 727.723 1230 735.52 1239.92 744.272 1249.2 754.002 1257.79 764.563 1265.83 775.901 1273.35 787.792 1280.55 800.236 1287.43 812.972 1297.86 833.337 1293.7 835.464 1283.29 815.122 1283.31 815.167 1276.46 802.484 1276.5 802.543 1269.34 790.169 1269.39 790.248 1261.92 778.449 1261.99 778.55 1254.03 767.324 1254.12 767.448 1245.64 757.018 1245.76 757.156 1236.61 747.566 1236.76 747.705 1226.99 739.087 1227.15 739.216 1216.72 731.526 1216.85 731.616 1205.89 724.633 1206.01 724.703 1194.6 718.339 1194.7 718.39 1182.9 712.512 1182.97 712.546 1170.95 707.066 1171.02 707.095 1146.49 696.797ZM1295.8 811.748 1298.71 840.131 1277.39 821.172C1276.43 820.316 1276.34 818.841 1277.2 817.878 1278.05 816.915 1279.53 816.828 1280.49 817.684L1297.33 832.657 1293.46 834.639 1291.16 812.224C1291.03 810.942 1291.96 809.796 1293.24 809.665 1294.52 809.533 1295.67 810.466 1295.8 811.748Z"/><path d="M1192.88 834.508 1168.32 824.198 1156.23 818.686 1144.35 812.766 1132.84 806.342 1121.75 799.28 1111.18 791.483 1101.26 782.731 1091.98 773.001 1083.38 762.44 1075.35 751.102 1067.82 739.211 1060.62 726.767 1053.74 714.031 1043.32 693.666 1047.47 691.539 1057.89 711.881 1057.86 711.836 1064.71 724.519 1064.68 724.46 1071.84 736.834 1071.79 736.755 1079.26 748.554 1079.19 748.453 1087.15 759.679 1087.05 759.555 1095.54 769.985 1095.42 769.847 1104.56 779.437 1104.42 779.298 1114.19 787.916 1114.03 787.787 1124.46 795.477 1124.33 795.387 1135.29 802.37 1135.17 802.3 1146.57 808.664 1146.47 808.613 1158.27 814.491 1158.2 814.457 1170.22 819.937 1170.16 819.908 1194.69 830.206ZM1045.37 715.255 1042.46 686.872 1063.79 705.831C1064.75 706.687 1064.83 708.162 1063.98 709.125 1063.12 710.088 1061.65 710.175 1060.68 709.319L1043.85 694.346 1047.72 692.364 1050.02 714.779C1050.15 716.061 1049.22 717.207 1047.93 717.338 1046.65 717.47 1045.51 716.537 1045.37 715.255Z"/><rect x="934" y="732" width="467" height="63" fill="#FFFFFF"/><text font-family="Segoe UI,Segoe UI_MSFontService,sans-serif" font-weight="300" font-size="48" transform="translate(962.186 779)">Heat transfer model<tspan fill="#F7B801" font-family="1,1_MSFontService,sans-serif" font-weight="700" font-size="53" x="-374.822" y="-650">Signal</tspan></text></g></svg>