<svg width="1619" height="943" xmlns="http://www.w3.org/2000/svg" xmlns:xlink="http://www.w3.org/1999/xlink" overflow="hidden"><defs><clipPath id="clip0"><rect x="154" y="61" width="1619" height="943"/></clipPath></defs><g clip-path="url(#clip0)" transform="translate(-154 -61)"><path d="M0 6.86662C0 3.07429 3.07428 -8.83237e-16 6.86661-1.76647e-15L215.133 0C218.926 -8.83237e-16 222 3.07429 222 6.86662L222 191.133C222 194.926 218.926 198 215.133 198L6.86661 198C3.07428 198 -8.83236e-16 194.926-1.76647e-15 191.133Z" stroke="#000000" stroke-width="4.66667" stroke-miterlimit="8" stroke-dasharray="14 4.66667" fill="#F7F7F7" fill-rule="evenodd" transform="matrix(1 0 0 -1 1129.5 351.5)"/><path d="M1175.19 176.5 1208.45 248.756 1415.37 248.756 1459.5 248.798 1459.5 291.5 1393.83 291.5 1393.83 291.5 1216.59 291.5 1199.3 274.886 1198.08 275.445 1196.66 272.346 1175.64 252.142 1175.64 248.756 1185.8 248.756 1156.5 185.081 1175.19 176.5Z" fill="#BF211E" fill-rule="evenodd"/><path d="M1174.99 176.046C1175.24 175.931 1175.53 176.04 1175.65 176.291L1208.9 248.547 1208.45 248.256 1415.37 248.256 1459.5 248.298C1459.78 248.298 1460 248.522 1460 248.798L1460 291.5C1460 291.776 1459.78 292 1459.5 292L1393.83 292C1393.55 292 1393.33 291.776 1393.33 291.5L1393.33 291.5 1393.83 292 1216.59 292C1216.46 292 1216.33 291.95 1216.24 291.86L1198.96 275.247 1199.51 275.341 1198.29 275.899C1198.04 276.014 1197.75 275.904 1197.63 275.654L1196.2 272.556 1196.31 272.707 1175.29 252.503C1175.19 252.408 1175.14 252.278 1175.14 252.142L1175.14 248.756C1175.14 248.48 1175.36 248.256 1175.64 248.256L1185.8 248.256 1185.35 248.965 1156.05 185.29C1155.93 185.039 1156.04 184.742 1156.29 184.627ZM1156.71 185.536 1156.95 184.872 1186.26 248.547C1186.33 248.702 1186.32 248.882 1186.22 249.026 1186.13 249.169 1185.97 249.256 1185.8 249.256L1175.64 249.256 1176.14 248.756 1176.14 252.142 1175.98 251.782 1197.01 271.986C1197.05 272.029 1197.09 272.081 1197.11 272.137L1198.54 275.236 1197.88 274.99 1199.09 274.432C1199.28 274.346 1199.5 274.383 1199.65 274.526L1216.93 291.139 1216.59 291 1393.83 291C1394.1 291 1394.33 291.224 1394.33 291.5L1394.33 291.5 1393.83 291 1459.5 291 1459 291.5 1459 248.798 1459.5 249.298 1415.37 249.256 1208.45 249.256C1208.25 249.256 1208.07 249.142 1207.99 248.965L1174.74 176.709 1175.4 176.954Z"/><path d="M1269.5 240.866C1269.5 239.007 1271.01 237.5 1272.87 237.5L1313.13 237.5C1314.99 237.5 1316.5 239.007 1316.5 240.866L1316.5 299.134C1316.5 300.993 1314.99 302.5 1313.13 302.5L1272.87 302.5C1271.01 302.5 1269.5 300.993 1269.5 299.134Z" stroke="#000000" stroke-width="4.66667" stroke-miterlimit="8" fill="#F2F2F2" fill-rule="evenodd"/><path d="M247.5 560.35C247.5 551.596 254.596 544.5 263.35 544.5L742.65 544.5C751.404 544.5 758.5 551.596 758.5 560.35L758.5 985.672C758.5 994.425 751.404 1001.52 742.65 1001.52L263.35 1001.52C254.596 1001.52 247.5 994.425 247.5 985.672Z" stroke="#000000" stroke-width="4.66667" stroke-miterlimit="8" stroke-dasharray="14 4.66667" fill="#F7F7F7" fill-rule="evenodd"/><path d="M155.656 847.596C177.997 852.677 200.338 857.759 220.61 853.377 240.883 848.994 264.694 821.851 277.292 821.299 289.889 820.747 293.042 835.405 296.195 850.064" stroke="#000000" stroke-width="4.66667" stroke-miterlimit="8" fill="none" fill-rule="evenodd"/><path d="M295.709 767.732C272.814 768.605 253.866 813.319 232.112 821.839 210.358 830.36 190.65 827.22 165.185 818.854" stroke="#000000" stroke-width="4.66667" stroke-miterlimit="8" fill="none" fill-rule="evenodd"/><rect x="542.5" y="724.5" width="129" height="12" stroke="#000000" stroke-miterlimit="8" fill="#98D93E"/><rect x="502.5" y="724.5" width="43" height="12" stroke="#000000" stroke-miterlimit="8" fill="#98D93E"/><path d="M662.5 598.5 673.5 598.5 673.5 722.513 665.282 728.5 662.5 728.5Z" fill="#F7B801" fill-rule="evenodd"/><path d="M662 598.5C662 598.224 662.224 598 662.5 598L673.5 598C673.776 598 674 598.224 674 598.5L674 722.513C674 722.672 673.924 722.823 673.794 722.917L665.576 728.904C665.49 728.966 665.387 729 665.282 729L662.5 729C662.224 729 662 728.776 662 728.5ZM663 728.5 662.5 728 665.282 728 664.987 728.096 673.206 722.109 673 722.513 673 598.5 673.5 599 662.5 599 663 598.5Z"/><path d="M621.5 271C621.5 245.319 642.319 224.5 668 224.5 693.681 224.5 714.5 245.319 714.5 271 714.5 296.681 693.681 317.5 668 317.5 642.319 317.5 621.5 296.681 621.5 271Z" stroke="#000000" stroke-width="4.66667" stroke-miterlimit="8" fill="#F2F2F2" fill-rule="evenodd"/><path d="M646.5 416.5 689.5 416.5 669.827 566.635 673.872 597.5 662.129 597.5 666.173 566.635Z" fill="#F7B801" fill-rule="evenodd"/><path d="M646.004 416.565C645.986 416.422 646.029 416.278 646.124 416.17 646.219 416.062 646.356 416 646.5 416L689.5 416C689.644 416 689.781 416.062 689.876 416.17 689.971 416.278 690.015 416.422 689.996 416.565L670.323 566.7 670.323 566.57 674.368 597.435C674.386 597.578 674.343 597.722 674.248 597.83 674.153 597.938 674.016 598 673.872 598L662.129 598C661.985 598 661.848 597.938 661.753 597.83 661.658 597.722 661.614 597.578 661.633 597.435L665.677 566.57 665.677 566.7ZM666.669 566.57C666.674 566.613 666.674 566.656 666.669 566.7L662.624 597.565 662.129 597 673.872 597 673.376 597.565 669.332 566.7C669.326 566.656 669.326 566.613 669.332 566.57L689.004 416.435 689.5 417 646.5 417 646.996 416.435Z"/><path d="M646.5 416.5 667.21 272.5 668.79 272.5 689.5 416.5Z" fill="#F7B801" fill-rule="evenodd"/><path d="M646.5 417C646.355 417 646.217 416.937 646.122 416.827 646.027 416.718 645.984 416.572 646.005 416.429L666.715 272.429C666.751 272.183 666.961 272 667.21 272L668.79 272C669.039 272 669.25 272.183 669.285 272.429L689.995 416.429C690.016 416.572 689.973 416.718 689.878 416.827 689.783 416.937 689.645 417 689.5 417ZM689.5 416 689.005 416.571 668.295 272.571 668.79 273 667.21 273 667.705 272.571 646.995 416.571 646.5 416Z"/><path d="M0 0 7.28831 402.5 0 805 25 805 17.7117 402.5 25 0Z" fill="#BF211E" fill-rule="evenodd" transform="matrix(1.83697e-16 1 1 -1.83697e-16 265.5 258.5)"/><path d="M0 0.5 0.499918-0.00905231 7.78823 402.491 0.499918 805.009 0 804.5 25 804.5 24.5001 805.009 17.2118 402.509 24.5001-0.00905231 25 0.5ZM25-0.5C25.1342-0.5 25.2627-0.446071 25.3567-0.350338 25.4508-0.254606 25.5023-0.125103 25.4999 0.00905231L18.2116 402.491 25.4999 804.991C25.5023 805.125 25.4508 805.255 25.3567 805.35 25.2627 805.446 25.1342 805.5 25 805.5L0 805.5C-0.134177 805.5-0.262725 805.446-0.356739 805.35-0.450754 805.255-0.502347 805.125-0.499918 804.991L6.78839 402.509-0.499918 0.00905231C-0.502347-0.125103-0.450754-0.254606-0.356739-0.350338-0.262725-0.446071-0.134177-0.5 0-0.5Z" transform="matrix(1.83697e-16 1 1 -1.83697e-16 265.5 258.5)"/><path d="M1076.5 258.5 1180.56 258.5 1214.5 283.5 1076.5 283.5Z" fill="#BF211E" fill-rule="evenodd"/><path d="M1076 258.5C1076 258.224 1076.22 258 1076.5 258L1180.56 258C1180.66 258 1180.77 258.034 1180.85 258.097L1214.8 283.097C1214.97 283.226 1215.04 283.451 1214.97 283.656 1214.91 283.861 1214.72 284 1214.5 284L1076.5 284C1076.22 284 1076 283.776 1076 283.5ZM1077 283.5 1076.5 283 1214.5 283 1214.2 283.903 1180.26 258.903 1180.56 259 1076.5 259 1077 258.5Z"/><path d="M0 108.745C19.3908 96.5416 38.7816 84.3378 50.0173 66.9039 61.2531 49.47 58.8972 13.44 67.4147 4.14189 75.9321-5.15619 88.5271 2.97963 101.122 11.1154" stroke="#000000" stroke-width="4.66667" stroke-miterlimit="8" fill="none" fill-rule="evenodd" transform="matrix(0.784773 -0.619783 -0.619783 -0.784773 1697.33 363.201)"/><path d="M0 17.0004C-3.85123e-15 7.61132 7.61131-3.85123e-15 17.0003-3.85123e-15L225 0C234.389-1.92562e-15 242 7.61132 242 17.0004L242 84.9996C242 94.3887 234.389 102 225 102L17.0003 102C7.61131 102-1.92561e-15 94.3887-1.92561e-15 84.9996Z" stroke="#000000" stroke-width="4.66667" stroke-miterlimit="8" fill="#F2F2F2" fill-rule="evenodd" transform="matrix(1 0 0 -1 1441.5 322.5)"/><path d="M65.3602 31C87.2201 31 107.01 27.6956 121.336 22.3533L131 17.0079 131 13.9923 121.336 8.64672C107.01 3.30439 87.2201 0 65.3602 0 43.5005 0 23.7102 3.30439 9.38463 8.64672L0 13.8376 0 17.1624 9.38463 22.3533C23.7102 27.6956 43.5005 31 65.3602 31Z" stroke="#000000" stroke-width="2" stroke-miterlimit="8" fill="#E1F7FF" fill-rule="evenodd" transform="matrix(-1.83697e-16 -1 -1 1.83697e-16 1092 337)"/><path d="M288.5 300.5 282.914 300.5 248.5 280.241 248.5 260.466 279.019 242.5 288.5 242.5C292.919 242.5 296.5 246.136 296.5 250.62L296.5 253.478 266.925 270.889 296.5 288.3 296.5 292.38C296.5 296.865 292.919 300.5 288.5 300.5Z" stroke="#000000" stroke-width="4.66667" stroke-miterlimit="8" fill="#F2F2F2" fill-rule="evenodd"/><text font-family="Segoe UI,Segoe UI_MSFontService,sans-serif" font-weight="700" font-size="43" transform="translate(339.583 475)">Detector <tspan x="-5.07999" y="51">assembly</tspan></text><rect x="624" y="122" width="89" height="13" fill="#FFFFFF"/><path d="M47.3986 23C63.2512 23 77.603 20.5484 87.9916 16.5847L95 12.6187 95 10.3814 87.9916 6.41531C77.603 2.45165 63.2512 0 47.3986 0 31.5462 0 17.1944 2.45165 6.80565 6.41531L0 10.2666 0 12.7334 6.80565 16.5847C17.1944 20.5484 31.5462 23 47.3986 23Z" stroke="#000000" stroke-width="2" stroke-miterlimit="8" fill="#E1F7FF" fill-rule="evenodd" transform="matrix(1 0 0 -1 620 613)"/><rect x="453.5" y="899.5" width="91" height="11" stroke="#000000" stroke-miterlimit="8" fill="#07AED5"/><path d="M662.985 726.5 673.5 726.5 673.5 906.926 662.985 917.5 662.985 910.874 540.5 910.874 540.5 898.905 662.985 898.905Z" stroke="#000000" stroke-miterlimit="8" fill="#07AED5" fill-rule="evenodd"/><path d="M619.789 764.981 707.745 677.025 717.51 686.79 629.554 774.745Z" stroke="#000000" stroke-width="2" stroke-miterlimit="8" fill="#E1F7FF" fill-rule="evenodd"/><path d="M621.029 945.086 708.985 857.13 718.75 866.895 630.794 954.85Z" stroke="#000000" stroke-width="2" stroke-miterlimit="8" fill="#E1F7FF" fill-rule="evenodd"/><rect x="536" y="682" width="16" height="92" stroke="#000000" stroke-width="2" stroke-miterlimit="8" fill="#E1F7FF"/><path d="M281 687.5C281 676.178 290.178 667 301.5 667L491.5 667C502.822 667 512 676.178 512 687.5L512 769.5C512 780.822 502.822 790 491.5 790L301.5 790C290.178 790 281 780.822 281 769.5Z" stroke="#000000" stroke-width="4" stroke-miterlimit="8" fill="#98D93E" fill-rule="evenodd"/><rect x="304.5" y="684.5" width="185" height="89" stroke="#000000" stroke-width="2.66667" stroke-miterlimit="8" fill="#FFFFFF"/><path d="M281 863.334C281 852.104 290.104 843 301.334 843L491.666 843C502.896 843 512 852.104 512 863.334L512 944.666C512 955.896 502.896 965 491.666 965L301.334 965C290.104 965 281 955.896 281 944.666Z" stroke="#000000" stroke-width="4" stroke-miterlimit="8" fill="#07AED5" fill-rule="evenodd"/><rect x="304.5" y="859.5" width="185" height="90" stroke="#000000" stroke-width="2.66667" stroke-miterlimit="8" fill="#FFFFFF"/><text font-family="Segoe UI,Segoe UI_MSFontService,sans-serif" font-weight="700" font-size="32" transform="translate(361.716 722)">PMT<tspan font-weight="300" x="-32.0867" y="39">Channel 1</tspan><tspan x="-0.00332642" y="174">PMT</tspan><tspan font-weight="300" x="-34.5033" y="213">Channel 2</tspan></text><rect x="536" y="858" width="16" height="92" stroke="#000000" stroke-width="2" stroke-miterlimit="8" fill="#E1F7FF"/><text font-family="Segoe UI,Segoe UI_MSFontService,sans-serif" font-weight="300" font-size="43" transform="translate(823.084 830)">Bandpass filters <tspan font-size="37" x="295.233" y="0">(</tspan><tspan font-size="37" x="306.067" y="0">τ</tspan><tspan font-size="25" x="324.233" y="8">λ</tspan><tspan font-size="37" x="336.567" y="0">)</tspan></text><path d="M0 0 11.7784 0.000104987" stroke="#000000" stroke-width="2.66667" stroke-linecap="round" stroke-miterlimit="8" fill="none" fill-rule="evenodd" transform="matrix(1 0 0 -1 803.5 818.5)"/><path d="M802.512 820.086 559.869 774.49C559.146 774.354 558.669 773.657 558.805 772.933 558.941 772.21 559.638 771.733 560.362 771.869L803.004 817.465C803.728 817.601 804.205 818.298 804.069 819.022 803.933 819.746 803.236 820.222 802.512 820.086ZM570.344 781.114 556.501 772.5 572.527 769.499C573.251 769.363 573.947 769.84 574.083 770.564 574.218 771.288 573.741 771.984 573.018 772.12L560.362 774.49 560.821 772.048 571.753 778.85C572.378 779.239 572.57 780.062 572.181 780.687 571.792 781.312 570.969 781.503 570.344 781.114Z"/><path d="M0.316994-1.2951 243.732 58.2838C244.447 58.4589 244.885 59.1807 244.71 59.8959 244.535 60.6112 243.813 61.0491 243.098 60.874L-0.316994 1.2951C-1.03226 1.12003-1.47017 0.398272-1.2951-0.316994-1.12003-1.03226-0.398272-1.47017 0.316994-1.2951ZM233.633 51.1009 246.988 60.4534 230.823 62.5807C230.093 62.6768 229.423 62.1628 229.327 61.4328 229.231 60.7027 229.745 60.0329 230.475 59.9368L243.24 58.2569 242.649 60.671 232.103 53.2852C231.5 52.8628 231.353 52.0314 231.776 51.4282 232.198 50.825 233.029 50.6785 233.633 51.1009Z" transform="matrix(-1 0 0 1 802.489 818.5)"/><text font-family="Segoe UI,Segoe UI_MSFontService,sans-serif" font-weight="300" font-size="43" transform="translate(857.516 678)">Dichroic mirror</text><path d="M0 0 11.7784 0.000104987" stroke="#000000" stroke-width="2.66667" stroke-linecap="round" stroke-miterlimit="8" fill="none" fill-rule="evenodd" transform="matrix(1 0 0 -1 837.5 663.5)"/><path d="M0.258485-1.30804 114.544 21.2763C115.267 21.419 115.737 22.1204 115.594 22.8428 115.451 23.5652 114.75 24.0351 114.027 23.8924L-0.258485 1.30804C-0.980894 1.16528-1.4508 0.463924-1.30804-0.258485-1.16528-0.980894-0.463924-1.4508 0.258485-1.30804ZM104.133 14.5544 117.895 23.2975 101.842 26.1489C101.117 26.2777 100.425 25.7943 100.296 25.0693 100.167 24.3442 100.651 23.6521 101.376 23.5233L114.053 21.2715 113.571 23.7097 102.703 16.8052C102.082 16.4104 101.898 15.5864 102.293 14.9648 102.688 14.3433 103.512 14.1595 104.133 14.5544Z" transform="matrix(-1 0 0 1 837.396 663.5)"/><text font-family="Segoe UI,Segoe UI_MSFontService,sans-serif" font-weight="300" font-size="48" transform="translate(219.46 170)">Beam <tspan x="-3" y="57">dump</tspan><tspan font-weight="700" font-size="43" x="1224.05" y="200">Pulsed laser</tspan><tspan font-size="37" x="1224.78" y="246">Often 1064 nm </tspan><tspan font-size="37" x="1281.9" y="290">Nd:YAG</tspan><tspan font-size="43" x="264.147" y="8">Burner</tspan></text><path d="M625.278 162.5 613.5 162.5" stroke="#000000" stroke-width="2.66667" stroke-linecap="round" stroke-miterlimit="8" fill="none" fill-rule="evenodd"/><path d="M626.735 161.998 649.424 217.879C649.701 218.561 649.372 219.339 648.69 219.616 648.008 219.893 647.23 219.564 646.953 218.882L624.265 163.002C623.988 162.319 624.316 161.542 624.998 161.265 625.681 160.988 626.458 161.316 626.735 161.998ZM649.331 205.487 649.572 221.789 638.381 209.933C637.875 209.397 637.899 208.553 638.435 208.048 638.97 207.543 639.814 207.567 640.32 208.102L649.158 217.465 646.855 218.4 646.665 205.526C646.654 204.79 647.242 204.184 647.978 204.173 648.714 204.162 649.32 204.75 649.331 205.487Z"/><path d="M26.4435 23C35.2875 23 43.2943 20.5484 49.0901 16.5847L53 12.6187 53 10.3814 49.0901 6.41531C43.2943 2.45165 35.2875 0 26.4435 0 17.5994 0 9.59267 2.45165 3.79683 6.41531L0 10.2666 0 12.7334 3.79683 16.5847C9.59267 20.5484 17.5994 23 26.4435 23Z" stroke="#000000" stroke-width="2" stroke-miterlimit="8" fill="#E1F7FF" fill-rule="evenodd" transform="matrix(1 0 0 -1 641 427)"/><path d="M689.5 406.255C689.5 404.733 690.733 403.5 692.255 403.5L699.745 403.5C701.267 403.5 702.5 404.733 702.5 406.255L702.5 425.745C702.5 427.267 701.267 428.5 699.745 428.5L692.255 428.5C690.733 428.5 689.5 427.267 689.5 425.745Z" stroke="#000000" stroke-width="4.66667" stroke-miterlimit="8" fill="#F2F2F2" fill-rule="evenodd"/><path d="M633.5 406.043C633.5 404.639 634.639 403.5 636.043 403.5L642.957 403.5C644.362 403.5 645.5 404.639 645.5 406.043L645.5 425.957C645.5 427.362 644.362 428.5 642.957 428.5L636.043 428.5C634.639 428.5 633.5 427.362 633.5 425.957Z" stroke="#000000" stroke-width="4.66667" stroke-miterlimit="8" fill="#F2F2F2" fill-rule="evenodd"/><text font-family="Segoe UI,Segoe UI_MSFontService,sans-serif" font-weight="300" font-size="43" transform="translate(793.635 441)">Collecting <tspan x="0" y="51">lens (</tspan>A<tspan font-size="28" x="123.667" y="61">lens</tspan><tspan x="171.833" y="51">)</tspan></text><path d="M0 0 11.7784 0.000104987" stroke="#000000" stroke-width="2.66667" stroke-linecap="round" stroke-miterlimit="8" fill="none" fill-rule="evenodd" transform="matrix(1 0 0 -1 774.5 429.5)"/><path d="M774.118 430.548 711.86 418.508C711.137 418.368 710.664 417.669 710.804 416.946 710.944 416.223 711.643 415.75 712.366 415.89L774.624 427.93C775.347 428.07 775.82 428.769 775.68 429.492 775.54 430.215 774.841 430.688 774.118 430.548ZM722.298 425.187 708.501 416.5 724.542 413.584C725.267 413.452 725.961 413.932 726.093 414.657 726.224 415.382 725.744 416.076 725.019 416.207L712.352 418.511 712.824 416.07 723.719 422.931C724.342 423.323 724.529 424.146 724.137 424.769 723.745 425.393 722.921 425.58 722.298 425.187Z"/><path d="M623.5 416.5C618.529 416.5 614.5 413.195 614.5 409.119L614.5 357.716C614.5 353.64 610.471 350.335 605.5 350.335 610.471 350.335 614.5 347.031 614.5 342.954L614.5 278.881C614.5 274.805 618.529 271.5 623.5 271.5" stroke="#000000" stroke-width="2.66667" stroke-linecap="round" stroke-miterlimit="8" fill="none" fill-rule="evenodd"/><text font-family="Segoe UI,Segoe UI_MSFontService,sans-serif" font-weight="300" font-size="43" transform="translate(232.92 366)">Distance to lens (u)</text><rect x="669" y="559" width="22" height="7"/><rect x="644" y="559" width="22" height="7"/><text font-family="Segoe UI,Segoe UI_MSFontService,sans-serif" font-weight="300" font-size="43" transform="translate(790.966 599)">Aperture (<tspan x="186.5" y="0">A</tspan><tspan font-size="28" x="213.667" y="10">ap</tspan><tspan x="244.333" y="0">)</tspan></text><path d="M0 0 11.7784 0.000104987" stroke="#000000" stroke-width="2.66667" stroke-linecap="round" stroke-miterlimit="8" fill="none" fill-rule="evenodd" transform="matrix(1 0 0 -1 772.5 584.5)"/><path d="M771.492 586.379 698.678 565.785C697.969 565.584 697.557 564.847 697.758 564.139 697.958 563.43 698.695 563.018 699.404 563.219L772.217 583.813C772.926 584.013 773.338 584.75 773.137 585.458 772.937 586.167 772.2 586.579 771.492 586.379ZM708.515 573.322 695.501 563.5 711.731 561.95C712.464 561.88 713.115 562.417 713.186 563.15 713.256 563.883 712.718 564.534 711.985 564.604L699.168 565.829 699.844 563.437 710.121 571.194C710.709 571.637 710.826 572.473 710.382 573.061 709.939 573.649 709.103 573.766 708.515 573.322Z"/><path d="M675.5 263.5C677.433 263.5 679 264.785 679 266.37L679 267.732C679 269.317 680.567 270.603 682.5 270.603 680.567 270.603 679 271.888 679 273.473L679 277.63C679 279.215 677.433 280.5 675.5 280.5" stroke="#000000" stroke-width="2.66667" stroke-linecap="round" stroke-miterlimit="8" fill="none" fill-rule="evenodd"/><path d="M0 0 41.6 89.6001" stroke="#000000" stroke-width="2.66667" stroke-linecap="round" stroke-miterlimit="8" fill="none" fill-rule="evenodd" transform="matrix(1 0 0 -1 692.5 270.1)"/><text font-family="Segoe UI,Segoe UI_MSFontService,sans-serif" font-weight="300" font-size="43" transform="translate(760.169 142)">Laser sheet <tspan x="0" y="51">thickness (</tspan><tspan x="190.167" y="51">ω</tspan><tspan font-size="28" x="224.667" y="61">b</tspan><tspan x="241" y="51">)</tspan></text><path d="M746.278 179.5 734.5 179.5" stroke="#000000" stroke-width="2.66667" stroke-linecap="round" stroke-miterlimit="8" fill="none" fill-rule="evenodd"/><path d="M1281.5 224.452C1281.5 220.613 1284.61 217.5 1288.45 217.5L1302.55 217.5C1306.39 217.5 1309.5 220.613 1309.5 224.452L1309.5 315.548C1309.5 319.387 1306.39 322.5 1302.55 322.5L1288.45 322.5C1284.61 322.5 1281.5 319.387 1281.5 315.548Z" stroke="#000000" stroke-width="4.66667" stroke-miterlimit="8" fill="#F2F2F2" fill-rule="evenodd"/><path d="M1158.99 222.797 1247.33 310.366 1237.61 320.174 1149.27 232.604Z" stroke="#000000" stroke-width="2" stroke-miterlimit="8" fill="#E1F7FF" fill-rule="evenodd"/><path d="M1153.66 212.283 1151.6 208.09 1153.92 174.919 1168.54 167.75 1193.05 184.141 1196.54 191.256C1198.17 194.572 1196.8 198.577 1193.48 200.203L1191.37 201.239 1167.61 185.357 1165.62 213.863 1162.61 215.343C1159.29 216.969 1155.28 215.599 1153.66 212.283Z" stroke="#000000" stroke-width="4.66667" stroke-miterlimit="8" fill="#F2F2F2" fill-rule="evenodd"/><text font-family="Segoe UI,Segoe UI_MSFontService,sans-serif" font-weight="300" font-size="43" transform="translate(1348.72 139)">Polarizer</text><path d="M0 0 11.7784 0.000104987" stroke="#000000" stroke-width="2.66667" stroke-linecap="round" stroke-miterlimit="8" fill="none" fill-rule="evenodd" transform="matrix(1 0 0 -1 1330.5 124.5)"/><path d="M1.27505-0.389908 27.2377 84.5111C27.453 85.2153 27.0567 85.9607 26.3525 86.176 25.6483 86.3914 24.9029 85.9951 24.6876 85.2909L-1.27505 0.389908C-1.49039-0.314282-1.0941-1.05971-0.389908-1.27505 0.314282-1.49039 1.05971-1.0941 1.27505-0.389908ZM28.2458 72.1595 27.0384 88.4188 16.9437 75.6157C16.4878 75.0374 16.587 74.1991 17.1652 73.7431 17.7435 73.2872 18.5818 73.3864 19.0378 73.9646L27.0096 84.0754 24.6329 84.8022 25.5864 71.9621C25.6409 71.2277 26.2805 70.6766 27.0148 70.7311 27.7492 70.7857 28.3003 71.4252 28.2458 72.1595Z" transform="matrix(-1 0 0 1 1329.54 124.5)"/><text font-family="Segoe UI,Segoe UI_MSFontService,sans-serif" font-weight="700" font-size="43" transform="translate(1130.31 406)">Attenuator<tspan font-weight="300" font-size="37" x="0.906738" y="46">Controls laser </tspan><tspan font-weight="300" font-size="37" x="52.16" y="90">fluence</tspan></text></g></svg>